<svg xmlns="http://www.w3.org/2000/svg" viewBox="0 0 900 900">
<defs>
  <linearGradient id="bg" x1="0" y1="0" x2="1" y2="1"><stop stop-color="#eef0f7"/><stop offset="1" stop-color="#e3e5ee"/></linearGradient>
  <linearGradient id="shoe" x1="0" y1="0" x2="1" y2="1"><stop stop-color="#25263a"/><stop offset=".55" stop-color="#11121e"/><stop offset="1" stop-color="#4f46e5"/></linearGradient>
  <linearGradient id="sole" x1="0" y1="0" x2="0" y2="1"><stop stop-color="#fff"/><stop offset="1" stop-color="#dfe2ec"/></linearGradient>
  <filter id="shadow" x="-30%" y="-30%" width="160%" height="160%"><feDropShadow dx="0" dy="22" stdDeviation="20" flood-opacity=".18"/></filter>
</defs>
<rect width="900" height="900" rx="42" fill="url(#bg)"/>
<ellipse cx="455" cy="675" rx="285" ry="55" fill="#b7bac8" opacity=".45"/>
<g filter="url(#shadow)" transform="rotate(-7 450 470)">
  <path d="M176 510 C235 493 286 438 334 342 L405 190 C421 157 459 146 490 165 L548 201 C584 223 612 260 633 300 L690 410 C716 459 757 492 794 519 C823 540 820 575 790 594 C752 618 681 631 610 629 L251 629 C203 629 164 603 160 564 C157 541 163 521 176 510Z" fill="url(#shoe)"/>
  <path d="M404 195 L459 232 L432 352 C425 383 442 413 472 426 L586 476 C627 494 667 516 701 541 C725 558 753 567 790 570" fill="none" stroke="#8b86ff" stroke-width="16" stroke-linecap="round" opacity=".85"/>
  <path d="M333 342 C378 360 410 377 439 401" fill="none" stroke="#fff" stroke-width="13" stroke-linecap="round" opacity=".8"/>
  <path d="M298 403 C347 420 385 440 418 466" fill="none" stroke="#fff" stroke-width="13" stroke-linecap="round" opacity=".62"/>
  <path d="M257 458 C306 473 346 495 374 519" fill="none" stroke="#fff" stroke-width="13" stroke-linecap="round" opacity=".45"/>
  <path d="M177 545 C315 560 464 565 603 558 C686 554 748 550 800 565 L795 599 C747 622 677 633 607 631 L250 631 C202 631 166 603 161 567 C160 559 165 550 177 545Z" fill="url(#sole)"/>
  <path d="M188 576 C343 590 520 588 650 581 C713 578 762 575 800 584" fill="none" stroke="#c9ccd8" stroke-width="7"/>
  <circle cx="488" cy="204" r="7" fill="#fff" opacity=".9"/>
</g>
<text x="450" y="790" text-anchor="middle" font-family="Inter,Arial,sans-serif" font-size="28" font-weight="800" fill="#4f46e5">HOOPEE · MOTION AIR</text>
<text x="450" y="827" text-anchor="middle" font-family="Inter,Arial,sans-serif" font-size="18" fill="#707387">Performance • Conforto • Movimento</text>
</svg>